<?xml version="1.0" encoding="utf-8"?>
<!-- Generator: Adobe Illustrator 15.0.0, SVG Export Plug-In . SVG Version: 6.00 Build 0)  -->
<!DOCTYPE svg PUBLIC "-//W3C//DTD SVG 1.1//EN" "http://www.w3.org/Graphics/SVG/1.1/DTD/svg11.dtd">
<svg version="1.1" id="Layer_1" xmlns="http://www.w3.org/2000/svg" xmlns:xlink="http://www.w3.org/1999/xlink" x="0px" y="0px"
	 width="297.557px" height="171.629px" viewBox="0 0 297.557 171.629" enable-background="new 0 0 297.557 171.629"
	 xml:space="preserve">
<g>
	<g>
		<path fill="#0C1824" d="M22.042,96.75c0-6.75,0-96.75,0-96.75C8.167,0.75,0,9.25,0,25.5s0,55.917,0,73.083s8.833,28.167,24,28.167
			s56,0,56,0v-20.5c0,0-47.333,0-51.958,0S22.042,103.5,22.042,96.75z"/>
		<path fill="#0C1824" d="M140.167,0c-15.25,0-49.25,0-49.25,0v20.75c0,0,39.5,0,49.5,0s24,4,24,23s-14,23-24,23
			c-4.714,0-15.985,0-26.583,0V26.625H90.917V66.75V87.5v39.25h22.917V87.5c9.424,0,19.668,0,26.333,0c15.25,0,46.5-4.5,46.5-43.75
			S155.417,0,140.167,0z"/>
		<polygon fill="#0C1824" points="297.557,126.75 213.39,0 186.667,0 227.875,62.058 184.917,126.75 211.64,126.75 241.237,82.18 
			270.833,126.75 		"/>
		<polygon fill="#0C1824" points="295.807,0 269.083,0 244.838,36.512 258.2,56.634 		"/>
	</g>
	<g>
		<path fill="#0C1824" d="M68.298,154.584c-1.234-1.675-3.204-2.528-5.202-2.528c-4.643,0-7.935,4.085-7.935,8.641
			c0,4.819,3.262,8.64,7.935,8.64c2.527,0,4.555-1.029,6.025-2.91l1.852,1.558c-1.852,2.498-4.555,3.644-7.876,3.644
			c-5.966,0-10.58-4.614-10.58-10.932c0-6.113,4.408-10.933,10.58-10.933c2.821,0,5.584,0.97,7.347,3.262L68.298,154.584z"/>
		<path fill="#0C1824" d="M82.61,160.697c0-6.289,4.555-10.933,10.874-10.933s10.874,4.644,10.874,10.933
			s-4.556,10.932-10.874,10.932S82.61,166.986,82.61,160.697z M101.712,160.697c0-4.791-3.351-8.641-8.229-8.641
			s-8.229,3.85-8.229,8.641c0,4.79,3.35,8.64,8.229,8.64S101.712,165.487,101.712,160.697z"/>
		<path fill="#0C1824" d="M117.729,150.293h2.468v18.515h9.522v2.292h-11.99V150.293z"/>
		<path fill="#0C1824" d="M144.767,150.293h2.469v18.515h9.522v2.292h-11.991V150.293z"/>
		<path fill="#0C1824" d="M171.805,150.293h13.077v2.292h-10.608v6.524h9.903v2.292h-9.903v7.406h11.137v2.292h-13.606V150.293z"/>
		<path fill="#0C1824" d="M214.389,154.584c-1.234-1.675-3.203-2.528-5.203-2.528c-4.643,0-7.934,4.085-7.934,8.641
			c0,4.819,3.262,8.64,7.934,8.64c2.527,0,4.557-1.029,6.025-2.91l1.852,1.558c-1.852,2.498-4.555,3.644-7.877,3.644
			c-5.965,0-10.58-4.614-10.58-10.932c0-6.113,4.408-10.933,10.58-10.933c2.822,0,5.584,0.97,7.348,3.262L214.389,154.584z"/>
		<path fill="#0C1824" d="M245.042,152.585h-6.877V171.1h-2.469v-18.515h-6.877v-2.292h16.223V152.585z"/>
	</g>
</g>
</svg>
